<svg width="315" height="315" viewBox="0 0 315 315" fill="none" xmlns="http://www.w3.org/2000/svg">
<rect width="315" height="315" rx="52" fill="white"/>
<path d="M193.884 122.116L71.3479 244.652" stroke="#9EC927" stroke-width="21.3956" stroke-miterlimit="10"/>
<path d="M193.884 130.766C198.661 130.766 202.534 126.894 202.534 122.116C202.534 117.339 198.661 113.467 193.884 113.467C189.107 113.467 185.234 117.339 185.234 122.116C185.234 126.894 189.107 130.766 193.884 130.766Z" fill="#9EC927" stroke="#9EC927" stroke-width="21.3956" stroke-miterlimit="10"/>
<path d="M244.652 244.652H71.3479" stroke="#4AC0E3" stroke-width="21.3956" stroke-miterlimit="10"/>
<path d="M244.652 253.302C249.429 253.302 253.302 249.429 253.302 244.652C253.302 239.875 249.429 236.002 244.652 236.002C239.875 236.002 236.002 239.875 236.002 244.652C236.002 249.429 239.875 253.302 244.652 253.302Z" fill="#4AC0E3" stroke="#4AC0E3" stroke-width="21.3956" stroke-miterlimit="10"/>
<path d="M71.3479 71.3477V244.652" stroke="#E7234E" stroke-width="21.3956" stroke-miterlimit="10"/>
<path d="M71.3479 79.9976C76.1252 79.9976 79.9979 76.1249 79.9979 71.3477C79.9979 66.5705 76.1252 62.6978 71.3479 62.6978C66.5707 62.6978 62.698 66.5705 62.698 71.3477C62.698 76.1249 66.5707 79.9976 71.3479 79.9976Z" fill="#E7234E" stroke="#E7234E" stroke-width="21.3956" stroke-miterlimit="10"/>
<path d="M71.3782 253.302C76.1554 253.302 80.0282 249.429 80.0282 244.652C80.0282 239.875 76.1554 236.002 71.3782 236.002C66.601 236.002 62.7283 239.875 62.7283 244.652C62.7283 249.429 66.601 253.302 71.3782 253.302Z" fill="#E7234E" stroke="#E7234E" stroke-width="21.3956" stroke-miterlimit="10"/>
</svg>
