<svg width="221" height="240" viewBox="0 0 221 240" fill="none" xmlns="http://www.w3.org/2000/svg">
<path d="M47.3522 4.26121V9.83728C47.3522 10.8511 39.1378 15.4133 35.5857 16.4272C32.0336 17.441 23.9145 21.4963 23.407 27.0724C22.8996 32.6484 23.407 38.2245 22.3921 43.2936C21.3773 48.3628 19.8549 52.4181 19.3475 57.4873C18.84 62.5564 18.84 67.1186 18.3326 67.6256C17.8251 68.1325 16.3028 71.6809 15.7954 74.2154C15.2879 76.75 13.7656 88.916 13.2581 91.4505C12.7507 93.9851 11.7358 98.0404 10.7209 99.0543C9.70603 100.068 5.64647 102.096 4.12414 105.137C2.60181 108.179 0.572029 110.713 1.07947 111.22C1.58683 111.727 6.15207 107.167 6.6609 106.658M47.3522 4.26121C46.2311 3.16039 45.3102 2.04582 44.7195 1.21973M47.3522 4.26121C49.4415 6.31273 52.2265 8.31653 54.8684 8.31653C58.928 8.31653 63.3258 3.58533 65.0173 1.21973M6.6609 106.658C6.68345 106.636 6.69426 106.635 6.69382 106.655M6.6609 106.658C6.67179 106.657 6.68296 106.656 6.69382 106.655M6.69382 106.655C6.68443 107.079 1.60929 116.864 2.09418 118.317C2.50013 119.534 5.98458 113.755 7.67607 110.713C6.15373 113.755 3.41353 120.041 4.6314 120.852C5.84927 121.663 8.8601 115.107 10.2133 111.727C9.1984 115.445 7.47309 122.778 8.69095 122.372C9.5765 122.077 11.0523 118.727 12.182 115.752M6.69382 106.655C10.728 106.248 12.0744 105.474 12.2431 105.137M12.182 115.752C12.606 114.635 12.9812 113.571 13.2581 112.741C12.9324 113.555 12.5334 114.64 12.182 115.752ZM12.182 115.752C11.4388 118.104 10.9087 120.576 11.7356 120.852C13.258 121.359 15.2877 112.234 15.7952 112.234C16.3026 112.234 18.8398 106.658 18.8398 105.137C18.8398 104.159 18.0002 101.713 17.536 99.6874M32.5408 32.1445V45.8282C32.5408 48.3628 31.0185 52.925 30.5111 56.4734C30.0036 60.0218 26.959 67.6256 25.9441 69.6532C24.9292 71.6809 25.4366 78.7777 24.9292 82.3261C24.4217 85.8745 17.825 95.5059 17.3175 97.0266C17.1364 97.5692 17.2784 98.5637 17.536 99.6874M32.5408 32.1445V32.1415M32.5408 32.1445C32.5409 37.0457 32.8454 46.8425 34.0632 48.8697M34.0632 48.8697C35.5857 51.4043 37.1082 67.6256 35.5857 77.7638C34.0632 87.9021 31.0185 90.4367 30.0036 98.5473C28.9887 106.658 29.4962 130.99 31.526 139.607C33.5557 148.225 34.0632 155.322 34.0632 159.377C34.0632 163.432 32.0334 168.502 34.0632 179.654C36.093 190.806 37.1078 197.903 37.1078 202.972C37.1078 208.041 37.1078 214.124 35.0781 218.179C33.0483 222.235 31.0185 228.318 31.0185 229.331C31.0185 230.345 30.0036 231.866 30.5111 232.373C30.917 232.778 32.3717 230.852 33.0483 229.838C32.0334 231.359 30.2066 234.502 31.0185 234.907C31.7468 235.271 33.3463 233.215 34.2784 231.812M34.0632 48.8697C35.5855 50.3905 36.6004 50.3905 37.6153 50.3905M34.2784 231.812C34.3854 231.651 34.4835 231.498 34.5706 231.359C34.4782 231.498 34.3798 231.65 34.2784 231.812ZM34.2784 231.812C33.2658 233.43 31.9413 236.06 33.0483 236.428C33.6248 236.62 34.2998 235.987 34.9227 235.087M34.9227 235.087C35.6156 234.086 36.2441 232.756 36.6004 231.866C36.0659 232.705 35.3728 233.943 34.9227 235.087ZM34.9227 235.087C34.3756 236.477 34.1873 237.726 35.0781 237.949C36.1316 238.212 37.0998 236.64 37.7884 234.949M37.7884 234.949C38.1611 234.034 38.452 233.085 38.6302 232.373C38.3325 233.027 37.9929 233.974 37.7884 234.949ZM37.7884 234.949C37.412 236.745 37.4934 238.634 39.1376 238.963C41.577 239.45 41.6748 235.027 41.6748 233.894C41.6748 232.373 42.6897 228.895 42.6897 227.304C42.6897 224.491 43.7046 221.221 44.2121 220.207C44.7195 219.193 46.7493 216.658 46.7493 215.645C46.7493 214.631 47.7642 211.589 46.2418 210.575C44.7195 209.562 44.2121 209.562 44.2121 209.055C44.2121 208.548 43.7046 191.313 44.7195 189.792C45.7344 188.271 47.7642 176.612 47.7642 174.585C47.7642 172.557 46.7493 158.87 46.7493 156.843C46.7493 154.815 46.7493 150.76 47.7642 148.732C48.7791 146.704 51.3163 129.976 51.8237 123.386C52.1039 119.747 52.8386 113.586 52.8386 112.741M52.8386 112.741C50.8088 112.741 46.1626 107.165 45.227 103.616M52.8386 112.741H56.8982M20.3622 66.1048C21.3771 67.6256 22.392 67.6256 23.9143 67.6256M19.3475 70.1601C23.0009 70.1601 23.9143 72.1878 23.9143 73.2016M17.536 99.6874C15.3314 100.397 13.7654 99.5612 13.258 99.0543M8.69095 107.672C11.1267 108.888 12.7506 109.531 13.2581 109.699M13.7654 105.137C13.7654 105.948 14.1037 107.503 14.2728 108.179M51.8237 53.4319C51.0118 59.5149 45.227 66.1048 41.6748 68.6394M37.1078 153.294C36.2959 154.916 36.093 158.87 37.1078 160.898M43.7046 153.294C44.5165 154.511 44.7195 158.87 43.7046 160.898M41.6748 16.4272C45.227 16.4272 50.3014 17.9479 51.8237 20.4825M62.3846 4.26121V9.83728C62.3846 10.8511 70.599 15.4133 74.1511 16.4272C77.7032 17.441 85.8223 21.4963 86.3298 27.0724C86.8372 32.6484 86.3298 38.2245 87.3447 43.2936C88.3595 48.3628 89.8819 52.4181 90.3893 57.4873C90.8968 62.5564 90.8968 67.1186 91.4042 67.6256C91.9116 68.1325 93.434 71.6809 93.9414 74.2154C94.4489 76.75 95.9712 88.916 96.4786 91.4505C96.9861 93.9851 98.001 98.0404 99.0159 99.0543C100.031 100.068 104.09 102.096 105.613 105.137C107.135 108.179 109.165 110.713 108.657 111.22C108.15 111.727 103.585 107.167 103.076 106.658M103.076 106.658C103.053 106.636 103.043 106.635 103.043 106.655M103.076 106.658C103.065 106.657 103.054 106.656 103.043 106.655M103.043 106.655C103.052 107.079 108.128 116.864 107.643 118.317C107.237 119.534 103.752 113.755 102.061 110.713C103.583 113.755 106.323 120.041 105.105 120.852C103.888 121.663 100.877 115.107 99.5235 111.727C100.538 115.445 102.264 122.778 101.046 122.372C100.16 122.077 98.6844 118.727 97.5548 115.752M103.043 106.655C99.0088 106.248 97.6624 105.474 97.4937 105.137M97.5548 115.752C97.1308 114.635 96.7556 113.571 96.4786 112.741C96.8044 113.555 97.2034 114.64 97.5548 115.752ZM97.5548 115.752C98.298 118.104 98.8281 120.576 98.0012 120.852C96.4788 121.359 94.4491 112.234 93.9416 112.234C93.4342 112.234 90.8969 106.658 90.8969 105.137C90.8969 104.159 91.7366 101.713 92.2008 99.6874M77.1959 32.1445V45.8282C77.1959 48.3628 78.7183 52.925 79.2257 56.4734C79.7332 60.0218 82.7778 67.6256 83.7927 69.6532C84.8076 71.6809 84.3002 78.7777 84.8076 82.3261C85.3151 85.8745 91.9118 95.5059 92.4193 97.0266C92.6003 97.5692 92.4584 98.5637 92.2008 99.6874M77.1959 32.1445V32.1415M77.1959 32.1445C77.1959 37.0457 76.8914 46.8425 75.6736 48.8697M75.6736 48.8697C74.1511 51.4043 72.6286 67.6256 74.1511 77.7638C75.6736 87.9021 78.7183 90.4367 79.7332 98.5473C80.7481 106.658 80.2406 130.99 78.2108 139.607C76.1811 148.225 75.6736 155.322 75.6736 159.377C75.6736 163.432 77.7034 168.502 75.6736 179.654C73.6438 190.806 72.6289 197.903 72.6289 202.972C72.6289 208.041 72.6289 214.124 74.6587 218.179C76.6885 222.235 78.7183 228.318 78.7183 229.331C78.7183 230.345 79.7332 231.866 79.2257 232.373C78.8198 232.778 77.3651 230.852 76.6885 229.838C77.7034 231.359 79.5302 234.502 78.7183 234.907C77.99 235.271 76.3905 233.215 75.4584 231.812M75.6736 48.8697C74.1513 50.3905 73.1364 50.3905 72.1215 50.3905M75.4584 231.812C75.3514 231.651 75.2532 231.498 75.1662 231.359C75.2586 231.498 75.357 231.65 75.4584 231.812ZM75.4584 231.812C76.4709 233.43 77.7955 236.06 76.6885 236.428C76.112 236.62 75.437 235.987 74.8141 235.087M74.8141 235.087C74.1211 234.086 73.4927 232.756 73.1364 231.866C73.6709 232.705 74.364 233.943 74.8141 235.087ZM74.8141 235.087C75.3612 236.477 75.5495 237.726 74.6587 237.949C73.6051 238.212 72.637 236.64 71.9484 234.949M71.9484 234.949C71.5757 234.034 71.2848 233.085 71.1066 232.373C71.4043 233.027 71.7439 233.974 71.9484 234.949ZM71.9484 234.949C72.3248 236.745 72.2434 238.634 70.5992 238.963C68.1598 239.45 68.0619 235.027 68.0619 233.894C68.0619 232.373 67.0471 228.895 67.0471 227.304C67.0471 224.491 66.0322 221.221 65.5247 220.207C65.0173 219.193 62.9875 216.658 62.9875 215.645C62.9875 214.631 61.9726 211.589 63.4949 210.575C65.0173 209.562 65.5247 209.562 65.5247 209.055C65.5247 208.548 66.0322 191.313 65.0173 189.792C64.0024 188.271 61.9726 176.612 61.9726 174.585C61.9726 172.557 62.9875 158.87 62.9875 156.843C62.9875 154.815 62.9875 150.76 61.9726 148.732C60.9577 146.704 58.4205 129.976 57.9131 123.386C57.6328 119.747 56.8982 113.586 56.8982 112.741M56.8982 112.741C58.8487 112.741 63.495 106.658 64.5098 103.616M89.3746 66.1048C88.3597 67.6256 87.3448 67.6256 85.8225 67.6256M90.3893 70.1601C86.7359 70.1601 85.8225 72.1878 85.8225 73.2016M92.2008 99.6874C94.4054 100.397 95.9714 99.5612 96.4788 99.0543M101.046 107.672C98.6101 108.888 96.9862 109.531 96.4786 109.699M95.9714 105.137C95.9714 105.948 95.6331 107.503 95.4639 108.179M57.9131 53.4319C58.725 59.5149 64.5098 66.1048 68.0619 68.6394M72.6289 153.294C73.4409 154.916 73.6438 158.87 72.6289 160.898M66.0322 153.294C65.2203 154.511 65.0173 158.87 66.0322 160.898M68.0619 16.4272C64.5098 16.4272 59.4354 17.9479 57.9131 20.4825M41.1674 42.2798C40.66 42.2798 40.1525 41.7729 40.1525 41.266C40.1525 40.7591 40.66 40.2522 41.1674 40.2522C41.6748 40.2522 42.1823 40.7591 42.1823 41.266C42.1823 41.6715 41.6748 42.2798 41.1674 42.2798ZM68.5694 42.2798C69.0768 42.2798 69.5843 41.7729 69.5843 41.266C69.5843 40.7591 69.0768 40.2522 68.5694 40.2522C68.062 40.2522 67.5545 40.7591 67.5545 41.266C67.5545 41.6715 68.062 42.2798 68.5694 42.2798ZM53.8535 83.8468C54.3609 83.8468 54.8684 83.3399 54.8684 82.833C54.8684 82.3261 54.3609 81.8192 53.8535 81.8192C53.3461 81.8192 52.8386 82.3261 52.8386 82.833C52.8386 83.2385 53.3461 83.8468 53.8535 83.8468ZM51.8237 2.23356C53.0416 2.63909 56.3907 2.74047 57.9131 2.23356C57.0673 2.90944 56.4651 3.7543 54.8684 3.7543C53.3461 3.7543 52.8386 3.24739 51.8237 2.23356Z" stroke="black" stroke-width="0.835169"/>
<path d="M35.5117 145.5C32.5891 142.504 31.5115 129 31.015 118C30.7062 111.158 35.2138 105 40.0152 105C44.8166 105 49.0691 113.844 49.5117 116.5C50.0117 119.5 49.7205 126.148 49.5117 130C49.303 133.852 48.5117 145 45.0117 148C42.1058 150.491 38.4343 148.496 35.5117 145.5Z" fill="#4AC0E3"/>
<path d="M74.2773 145.5C77.1999 142.504 78.2775 129 78.7741 118C79.0829 111.158 74.5753 105 69.7739 105C64.9725 105 60.72 113.844 60.2773 116.5C59.7773 119.5 60.0686 126.148 60.2773 130C60.4861 133.852 61.2773 145 64.7773 148C67.6833 150.491 71.3548 148.496 74.2773 145.5Z" fill="#4AC0E3"/>
<path d="M143.978 48.3176C143.978 50.8616 142.444 56.4583 141.422 59.511C140.452 62.4071 137.843 68.6693 137.332 70.1956C136.31 73.2484 137.843 77.3187 135.287 83.933C134.299 86.4903 131.802 91.2402 130.686 93.0912C129.153 95.6352 128.642 98.6879 128.642 99.7055C128.642 100.723 129.664 103.267 129.664 105.302C129.664 107.329 127.636 111.373 127.116 112.412L127.109 112.425C126.599 113.443 124.552 121.584 123.531 121.075C122.714 120.668 123.53 116.496 124.041 114.46C123.189 117.344 121.178 123.11 119.951 123.11C118.724 123.11 120.803 116.665 121.996 113.443C120.633 116.496 117.6 122.499 116.374 122.092C115.148 121.685 117.566 115.139 118.929 111.917C117.395 114.63 114.123 119.854 113.305 119.04C112.487 118.226 116.032 110.221 117.906 106.32C116.373 108.185 113.204 111.815 112.795 111.408C112.284 110.899 115.351 105.811 116.374 104.285C117.396 102.758 119.441 101.741 120.975 100.723C122.508 99.7055 123.019 97.6704 123.531 95.1264C124.042 92.5824 125.064 87.4945 125.064 84.9506C125.064 82.4066 126.598 74.7747 127.109 72.2308C127.62 69.6868 129.665 68.6692 129.665 68.1605C129.665 67.6517 130.176 60.5286 130.687 55.9495C131.199 51.3703 133.243 43.7385 133.755 40.1769C134.266 36.6154 133.863 27.2427 134.777 25.422C135.798 23.3868 138.867 20.3341 142.445 18.2989C146.024 16.2637 154.202 12.7022 157.269 10.667C158.997 9.29116 159.825 7.17044 159.825 5.07033M143.978 48.3176C145 49.5048 147.556 58.6969 147.556 61.5462C147.556 65.1077 148.067 73.2484 147.556 77.3187C147.045 81.389 144.489 87.4945 143.466 92.0737C142.444 96.6528 141.422 99.7055 141.422 103.776C141.422 107.846 140.91 118.531 141.422 122.092C141.933 125.654 142.444 137.865 143.978 142.953C145.511 148.041 145.511 152.111 145.511 154.655C145.511 157.199 145 161.778 144.489 166.357C143.978 170.936 145.574 180.916 146.022 183.147L148.067 193.323C148.468 195.319 149.09 207.569 149.09 208.078M143.978 48.3176C143.978 43.0262 142.955 39.1594 142.955 33.0539M149.09 208.078C149.09 208.587 147.556 213.166 147.045 215.201C146.534 217.236 144.489 223.342 144.489 225.886C144.489 228.43 145 228.939 145 228.939M149.09 208.078C151.249 205.929 154.867 207.411 156.247 208.536M145 228.939C145 228.939 142.955 230.974 143.978 231.991C144.796 232.805 146.022 231.482 146.534 230.465M145 228.939C145.341 229.108 145.511 229.956 146.534 230.465M146.534 230.465C145.682 232.161 144.003 233.785 145.511 234.535C146.534 235.044 147.649 232.5 148.067 230.974M146.534 230.465L148.067 230.974M148.067 230.974C147.556 232.839 146.329 236.57 147.556 236.57C148.511 236.57 149.115 234.517 149.416 232.807M148.067 230.974L149.601 231.482M149.416 232.807C149.502 232.319 149.563 231.859 149.601 231.482M149.416 232.807C149.471 232.32 149.537 231.865 149.601 231.482M149.416 232.807C149.176 234.905 149.116 237.588 150.112 237.588C151.085 237.588 151.372 235.133 151.534 233.272M149.601 231.482L151.646 231.991M151.534 233.272C151.577 232.787 151.611 232.342 151.646 231.991M151.534 233.272C151.546 232.791 151.585 232.352 151.646 231.991M151.534 233.272C151.479 235.504 152.008 238.606 153.691 238.606C155.735 238.606 155.565 234.026 155.224 231.991C155.565 231.143 156.247 229.447 156.247 227.412C156.247 224.868 154.713 222.833 154.713 221.307C154.713 219.78 155.735 215.201 156.247 214.692C156.758 214.184 157.269 210.113 156.758 209.096C156.678 208.938 156.5 208.743 156.247 208.536M151.646 231.991C153.179 232.5 153.35 231.991 153.691 231.991M156.247 208.536C156.076 206.009 155.838 200.243 156.247 197.393C156.758 193.832 156.831 186.527 157.78 184.165C158.803 181.621 159.825 170.936 159.314 167.884C158.803 164.831 158.291 159.234 158.291 155.673C158.291 152.111 162.381 142.444 162.381 138.374C162.381 134.303 164.937 117.513 164.937 114.46M164.937 114.46C161.359 117.004 152.157 117.513 147.556 112.934M164.937 114.46C165.434 113.966 166.198 113.217 166.471 110.899M147.556 155.164C149.192 156.385 153.179 156.181 155.224 155.164M148.579 162.287C150.214 160.252 154.202 160.252 155.735 162.287M150.623 82.9154C154.713 82.9154 159.314 84.9506 161.87 88.5121M146.022 42.7209C148.476 42.7209 157.78 40.6857 157.78 22.3692M159.826 2.01758C159.826 3.00651 159.694 4.18819 159.825 5.07033M159.825 5.07033C159.182 4.86021 156.758 3.54396 155.735 1M131.709 70.1956C133.345 71.8238 135.117 71.8916 135.798 71.722M188.964 48.3176C188.964 50.8616 190.497 56.4583 191.52 59.511C192.49 62.4071 195.098 68.6693 195.609 70.1956C196.632 73.2484 195.098 77.3187 197.654 83.933C198.642 86.4903 201.139 91.2402 202.255 93.0912C203.789 95.6352 204.3 98.6879 204.3 99.7055C204.3 100.723 203.277 103.267 203.277 105.302C203.277 107.329 205.305 111.373 205.826 112.412L205.832 112.425C206.342 113.443 208.389 121.584 209.411 121.075C210.228 120.668 209.411 116.496 208.901 114.46C209.753 117.344 211.763 123.11 212.99 123.11C214.217 123.11 212.138 116.665 210.945 113.443C212.309 116.496 215.342 122.499 216.568 122.092C217.794 121.685 215.375 115.139 214.013 111.917C215.546 114.63 218.818 119.854 219.636 119.04C220.454 118.226 216.909 110.221 215.035 106.32C216.568 108.185 219.737 111.815 220.146 111.408C220.657 110.899 217.59 105.811 216.568 104.285C215.545 102.758 213.5 101.741 211.967 100.723C210.433 99.7055 209.922 97.6704 209.411 95.1264C208.9 92.5824 207.877 87.4945 207.877 84.9506C207.877 82.4066 206.344 74.7747 205.832 72.2308C205.321 69.6868 203.276 68.6692 203.276 68.1605C203.276 67.6517 202.765 60.5286 202.254 55.9495C201.743 51.3703 199.698 43.7385 199.187 40.1769C198.675 36.6154 199.078 27.2427 198.164 25.422C197.143 23.3868 194.075 20.3341 190.496 18.2989C186.918 16.2637 178.74 12.7022 175.672 10.667C173.944 9.29116 173.116 7.17044 173.116 5.07033M188.964 48.3176C187.941 49.5048 185.385 58.6969 185.385 61.5462C185.385 65.1077 184.874 73.2484 185.385 77.3187C185.896 81.389 188.452 87.4945 189.475 92.0737C190.497 96.6528 191.52 99.7055 191.52 103.776C191.52 107.846 192.031 118.531 191.52 122.092C191.008 125.654 190.497 137.865 188.964 142.953C187.43 148.041 187.43 152.111 187.43 154.655C187.43 157.199 187.941 161.778 188.452 166.357C188.964 170.936 187.367 180.916 186.919 183.147L184.874 193.323C184.473 195.319 183.852 207.569 183.852 208.078M188.964 48.3176C188.964 43.0262 189.986 39.1594 189.986 33.0539M183.852 208.078C183.852 208.587 185.385 213.166 185.896 215.201C186.408 217.236 188.452 223.342 188.452 225.886C188.452 228.43 187.941 228.939 187.941 228.939M183.852 208.078C181.693 205.929 178.075 207.411 176.695 208.536M187.941 228.939C187.941 228.939 189.986 230.974 188.964 231.991C188.146 232.805 186.919 231.482 186.408 230.465M187.941 228.939C187.6 229.108 187.43 229.956 186.408 230.465M186.408 230.465C187.26 232.161 188.938 233.785 187.43 234.535C186.408 235.044 185.292 232.5 184.874 230.974M186.408 230.465L184.874 230.974M184.874 230.974C185.385 232.839 186.612 236.57 185.385 236.57C184.431 236.57 183.827 234.517 183.526 232.807M184.874 230.974L183.34 231.482M183.526 232.807C183.44 232.319 183.378 231.859 183.34 231.482M183.526 232.807C183.47 232.32 183.405 231.865 183.34 231.482M183.526 232.807C183.766 234.905 183.825 237.588 182.829 237.588C181.856 237.588 181.569 235.133 181.407 233.272M183.34 231.482L181.296 231.991M181.407 233.272C181.365 232.787 181.331 232.342 181.296 231.991M181.407 233.272C181.395 232.791 181.356 232.352 181.296 231.991M181.407 233.272C181.462 235.504 180.934 238.606 179.251 238.606C177.206 238.606 177.376 234.026 177.717 231.991C177.376 231.143 176.695 229.447 176.695 227.412C176.695 224.868 178.228 222.833 178.228 221.307C178.228 219.78 177.206 215.201 176.695 214.692C176.184 214.184 175.672 210.113 176.184 209.096C176.263 208.938 176.441 208.743 176.695 208.536M181.296 231.991C179.762 232.5 179.592 231.991 179.251 231.991M176.695 208.536C176.865 206.009 177.104 200.243 176.695 197.393C176.184 193.832 176.11 186.527 175.161 184.165C174.139 181.621 173.116 170.936 173.628 167.884C174.139 164.831 174.65 159.234 174.65 155.673C174.65 152.111 170.56 142.444 170.56 138.374C170.56 134.303 168.004 117.513 168.004 114.46M168.004 114.46C171.583 117.004 180.784 117.513 185.385 112.934M168.004 114.46C167.493 114.097 166.982 113.443 166.471 110.899M185.385 155.164C183.749 156.385 179.762 156.181 177.717 155.164M184.363 162.287C182.727 160.252 178.74 160.252 177.206 162.287M182.318 82.9154C178.228 82.9154 173.628 84.9506 171.071 88.5121M186.919 42.7209C184.465 42.7209 175.161 40.6857 175.161 22.3692M173.115 2.01758C173.115 3.00651 173.247 4.18819 173.116 5.07033M173.116 5.07033C173.759 4.86021 176.184 3.54396 177.206 1M201.233 70.1956C199.596 71.8238 197.824 71.8916 197.143 71.722M166.471 105.302C166.404 106.366 166.471 108.864 166.471 110.899M166.471 22.878C166.471 33.5626 166.471 73.9268 166.471 74.266" stroke="black" stroke-width="0.835169"/>
<path d="M149.798 151.26C144.828 147.962 144 130.498 144 123.17C145.933 113.155 162.221 116.819 162.221 123.658C162.221 127.322 160.564 141.001 159.184 145.153C156.699 152.628 152.006 152.726 149.798 151.26Z" fill="#4AC0E3"/>
<path d="M183.202 151.26C188.172 147.962 189 130.498 189 123.17C187.067 113.155 170.779 116.819 170.779 123.658C170.779 127.322 172.436 141.001 173.816 145.153C176.301 152.628 180.994 152.726 183.202 151.26Z" fill="#4AC0E3"/>
<path d="M152.432 93.4228C147.776 95.3072 147 105.287 147 109.474C148.811 115.197 164.072 113.104 164.072 109.195C164.072 107.102 162.52 99.2851 161.226 96.9123C158.899 92.6412 154.501 92.5854 152.432 93.4228Z" fill="#4AC0E3"/>
<path d="M180.568 93.4228C185.224 95.3072 186 105.287 186 109.474C184.189 115.197 168.928 113.104 168.928 109.195C168.928 107.102 170.48 99.2851 171.774 96.9123C174.101 92.6412 178.499 92.5854 180.568 93.4228Z" fill="#4AC0E3"/>
</svg>
